<svg width="16" height="16" viewBox="0 0 16 16" fill="none" xmlns="http://www.w3.org/2000/svg">
<path fill-rule="evenodd" clip-rule="evenodd" d="M4.80156 1.59998C4.35973 1.59998 4.00156 1.95815 4.00156 2.39998V3.19998H3.20156C2.31791 3.19998 1.60156 3.91632 1.60156 4.79998V12.8C1.60156 13.6836 2.31791 14.4 3.20156 14.4H12.8016C13.6852 14.4 14.4016 13.6836 14.4016 12.8V4.79998C14.4016 3.91632 13.6852 3.19998 12.8016 3.19998H12.0016V2.39998C12.0016 1.95815 11.6434 1.59998 11.2016 1.59998C10.7597 1.59998 10.4016 1.95815 10.4016 2.39998V3.19998H5.60156V2.39998C5.60156 1.95815 5.24339 1.59998 4.80156 1.59998ZM4.80156 5.59998C4.35973 5.59998 4.00156 5.95815 4.00156 6.39998C4.00156 6.8418 4.35973 7.19998 4.80156 7.19998H11.2016C11.6434 7.19998 12.0016 6.8418 12.0016 6.39998C12.0016 5.95815 11.6434 5.59998 11.2016 5.59998H4.80156Z" fill="#9E9E9E"/>
</svg>
