<svg width="32" height="32" viewBox="0 0 32 32" fill="none" xmlns="http://www.w3.org/2000/svg">
<path fill-rule="evenodd" clip-rule="evenodd" d="M6.66625 12C6.66625 9.5246 7.64958 7.15064 9.39992 5.4003C11.1503 3.64996 13.5242 2.66663 15.9996 2.66663C18.4749 2.66663 20.8489 3.64996 22.5992 5.4003C24.3496 7.15064 25.3329 9.5246 25.3329 12V17.0186L27.7622 21.8773C27.8741 22.1009 27.9269 22.3494 27.9157 22.5992C27.9044 22.849 27.8295 23.0917 27.6981 23.3044C27.5666 23.5171 27.383 23.6926 27.1646 23.8144C26.9462 23.9361 26.7003 24 26.4502 24H21.1649C20.8683 25.1443 20.2002 26.1577 19.2653 26.8812C18.3304 27.6047 17.1817 27.9972 15.9996 27.9972C14.8175 27.9972 13.6688 27.6047 12.7339 26.8812C11.799 26.1577 11.1308 25.1443 10.8342 24H5.54892C5.29889 24 5.053 23.9361 4.8346 23.8144C4.61621 23.6926 4.43257 23.5171 4.30111 23.3044C4.16965 23.0917 4.09475 22.849 4.08351 22.5992C4.07228 22.3494 4.12508 22.1009 4.23691 21.8773L6.66625 17.0186V12ZM13.6902 24C13.9243 24.4053 14.2609 24.7419 14.6663 24.9759C15.0717 25.21 15.5315 25.3332 15.9996 25.3332C16.4677 25.3332 16.9275 25.21 17.3329 24.9759C17.7382 24.7419 18.0749 24.4053 18.3089 24H13.6902ZM15.9996 5.33329C14.2315 5.33329 12.5358 6.03567 11.2855 7.28591C10.0353 8.53616 9.33291 10.2318 9.33291 12V17.0186C9.33289 17.4324 9.23657 17.8405 9.05158 18.2106L7.49158 21.3333H24.5089L22.9489 18.2106C22.7635 17.8406 22.6667 17.4325 22.6662 17.0186V12C22.6662 10.2318 21.9639 8.53616 20.7136 7.28591C19.4634 6.03567 17.7677 5.33329 15.9996 5.33329Z" fill="black"/>
</svg>
