<svg width="24" height="29" viewBox="0 0 24 29" fill="none" xmlns="http://www.w3.org/2000/svg">
<path d="M22.3333 11.6667C22.3333 20.3333 11.6667 27.6667 11.6667 27.6667C11.6667 27.6667 1 20.3333 1 11.6667C1 8.83769 2.12381 6.12458 4.12419 4.12419C6.12458 2.12381 8.83769 1 11.6667 1C14.4956 1 17.2088 2.12381 19.2091 4.12419C21.2095 6.12458 22.3333 8.83769 22.3333 11.6667Z" stroke="black" stroke-width="2"/>
<path d="M15.668 11.6667C15.668 12.7276 15.2465 13.745 14.4964 14.4951C13.7463 15.2453 12.7288 15.6667 11.668 15.6667C10.6071 15.6667 9.58969 15.2453 8.83954 14.4951C8.0894 13.745 7.66797 12.7276 7.66797 11.6667C7.66797 10.6058 8.0894 9.58841 8.83954 8.83826C9.58969 8.08811 10.6071 7.66669 11.668 7.66669C12.7288 7.66669 13.7463 8.08811 14.4964 8.83826C15.2465 9.58841 15.668 10.6058 15.668 11.6667Z" stroke="black" stroke-width="2"/>
</svg>
