<svg width="16" height="16" viewBox="0 0 16 16" fill="none" xmlns="http://www.w3.org/2000/svg">
<path fill-rule="evenodd" clip-rule="evenodd" d="M6.40156 3.19998C4.63425 3.19998 3.20156 4.63266 3.20156 6.39998C3.20156 8.16729 4.63425 9.59998 6.40156 9.59998C8.16887 9.59998 9.60156 8.16729 9.60156 6.39998C9.60156 4.63266 8.16887 3.19998 6.40156 3.19998ZM1.60156 6.39998C1.60156 3.74901 3.7506 1.59998 6.40156 1.59998C9.05253 1.59998 11.2016 3.74901 11.2016 6.39998C11.2016 7.43664 10.8729 8.39655 10.3142 9.1812L14.1672 13.0343C14.4797 13.3467 14.4797 13.8532 14.1672 14.1657C13.8548 14.4781 13.3483 14.4781 13.0359 14.1657L9.18279 10.3126C8.39814 10.8713 7.43823 11.2 6.40156 11.2C3.7506 11.2 1.60156 9.05094 1.60156 6.39998Z" fill="#C2C2C2"/>
</svg>
